<svg width="8" height="16" viewBox="0 0 8 16" fill="none" xmlns="http://www.w3.org/2000/svg">
<path d="M5.98281 2.78574C6.44843 2.72902 6.92012 2.72628 7.38921 2.70432C7.57476 2.69701 7.76118 2.70432 7.99876 2.70432C7.99876 1.85362 8.00483 1.04865 7.99009 0.244602C7.98836 0.174167 7.85396 0.0461045 7.78113 0.0461045C6.81694 0.0406161 5.83108 -0.0801289 4.89377 0.092756C3.31743 0.383642 2.35844 1.73105 2.32376 3.43337C2.30729 4.22827 2.32116 5.02409 2.32116 5.87297H0V8.8175H2.29515V16H5.20592V8.83397C5.89177 8.83397 6.56115 8.84586 7.2288 8.82299C7.34759 8.81841 7.55048 8.68395 7.56523 8.58516C7.69182 7.70793 7.7846 6.82521 7.89298 5.89401H5.15823C5.19291 5.0744 5.20505 4.29962 5.26488 3.5285C5.29783 3.09766 5.58483 2.83605 5.98195 2.78665L5.98281 2.78574Z" fill="#262626"/>
</svg>
