<svg width="14" height="14" viewBox="0 0 14 14" fill="none" xmlns="http://www.w3.org/2000/svg">
<path d="M12.0752 0C13.0516 0 13.8437 0.791794 13.8438 1.76758V12.0762C13.8438 13.0526 13.051 13.8438 12.0752 13.8438H1.76758C0.791172 13.8437 0 13.052 0 12.0762V1.76855C0 0.792133 0.791794 0.00104457 1.76758 0.000976562L12.0752 0ZM6.92188 2.54395C4.50402 2.54395 2.54395 4.50402 2.54395 6.92188C2.54407 9.33962 4.5041 11.2988 6.92188 11.2988C9.33954 11.2987 11.2987 9.33954 11.2988 6.92188C11.2988 4.5041 9.33962 2.54407 6.92188 2.54395ZM4.2373 5.80957C4.85151 4.32722 6.55072 3.62341 8.0332 4.2373C9.51586 4.85144 10.2206 6.55153 9.60645 8.03418C8.99223 9.51667 7.29214 10.2205 5.80957 9.60645C4.32692 8.99231 3.62317 7.29222 4.2373 5.80957ZM11.3525 1.35449C10.7776 1.35449 10.3105 1.82155 10.3105 2.39648C10.3108 2.97125 10.7771 3.4375 11.3525 3.4375C11.9271 3.43726 12.3933 2.9711 12.3936 2.39648C12.3936 1.82169 11.9273 1.35473 11.3525 1.35449Z" fill="#262626"/>
</svg>
