<svg width="20" height="20" viewBox="0 0 20 20" fill="none" xmlns="http://www.w3.org/2000/svg">
<path d="M13.2002 2C13.4123 2.00007 13.6157 2.08441 13.7656 2.23438C13.9156 2.38435 13.9999 2.58772 14 2.7998V3.59961H14.7998C15.6484 3.59961 16.4624 3.93713 17.0625 4.53711C17.6626 5.13717 17.9999 5.9512 18 6.7998V14.7998C18 15.6485 17.6626 16.4624 17.0625 17.0625C16.4624 17.6626 15.6485 18 14.7998 18H5.2002C4.3515 18 3.53762 17.6626 2.9375 17.0625C2.3374 16.4624 2 15.6485 2 14.7998V6.7998C2.00006 5.9512 2.33744 5.13717 2.9375 4.53711C3.5376 3.93713 4.3516 3.59961 5.2002 3.59961H6V2.7998C6.00005 2.5877 6.08439 2.38436 6.23438 2.23438C6.38437 2.0844 6.58769 2.00003 6.7998 2C7.01191 2 7.21522 2.08444 7.36523 2.23438C7.51522 2.38436 7.59956 2.5877 7.59961 2.7998V3.59961H12.4004V2.7998C12.4004 2.58782 12.484 2.38433 12.6338 2.23438C12.7838 2.08435 12.988 2 13.2002 2ZM3.59961 14.7998C3.59961 15.2241 3.76831 15.6316 4.06836 15.9316C4.36842 16.2317 4.77585 16.4004 5.2002 16.4004H14.7998C15.2242 16.4004 15.6316 16.2317 15.9316 15.9316C16.2317 15.6316 16.4004 15.2241 16.4004 14.7998V9.2002H3.59961V14.7998ZM6 13.2002C6.21215 13.2002 6.4154 13.2846 6.56543 13.4346C6.71546 13.5846 6.7998 13.7878 6.7998 14C6.7998 14.2122 6.71546 14.4154 6.56543 14.5654C6.4154 14.7154 6.21215 14.7998 6 14.7998C5.78786 14.7998 5.58458 14.7154 5.43457 14.5654C5.28457 14.4154 5.2002 14.2122 5.2002 14C5.2002 13.7878 5.28457 13.5846 5.43457 13.4346C5.58458 13.2846 5.78786 13.2002 6 13.2002ZM10 13.2002C10.2122 13.2002 10.4154 13.2846 10.5654 13.4346C10.7155 13.5846 10.7998 13.7878 10.7998 14C10.7998 14.2122 10.7155 14.4154 10.5654 14.5654C10.4154 14.7154 10.2122 14.7998 10 14.7998C9.78786 14.7998 9.58458 14.7154 9.43457 14.5654C9.28457 14.4154 9.2002 14.2122 9.2002 14C9.2002 13.7878 9.28457 13.5846 9.43457 13.4346C9.58458 13.2846 9.78786 13.2002 10 13.2002ZM14 13.2002C14.2122 13.2002 14.4154 13.2846 14.5654 13.4346C14.7155 13.5846 14.7998 13.7878 14.7998 14C14.7998 14.2122 14.7155 14.4154 14.5654 14.5654C14.4154 14.7154 14.2122 14.7998 14 14.7998C13.7879 14.7998 13.5846 14.7154 13.4346 14.5654C13.2846 14.4154 13.2002 14.2122 13.2002 14C13.2002 13.7878 13.2846 13.5846 13.4346 13.4346C13.5846 13.2846 13.7879 13.2002 14 13.2002ZM6 10C6.21211 10 6.41541 10.0844 6.56543 10.2344C6.71541 10.3844 6.79975 10.5877 6.7998 10.7998C6.7998 11.012 6.71543 11.2152 6.56543 11.3652C6.4154 11.5153 6.21217 11.5996 6 11.5996C5.78786 11.5996 5.58458 11.5152 5.43457 11.3652C5.28463 11.2152 5.2002 11.0119 5.2002 10.7998C5.20025 10.5877 5.28459 10.3844 5.43457 10.2344C5.58457 10.0844 5.78788 10 6 10ZM10 10C10.2121 10 10.4154 10.0844 10.5654 10.2344C10.7154 10.3844 10.7998 10.5877 10.7998 10.7998C10.7998 11.012 10.7154 11.2152 10.5654 11.3652C10.4154 11.5153 10.2122 11.5996 10 11.5996C9.78786 11.5996 9.58458 11.5152 9.43457 11.3652C9.28463 11.2152 9.2002 11.0119 9.2002 10.7998C9.20025 10.5877 9.28459 10.3844 9.43457 10.2344C9.58457 10.0844 9.78788 10 10 10ZM14 10C14.2121 10 14.4154 10.0844 14.5654 10.2344C14.7154 10.3844 14.7998 10.5877 14.7998 10.7998C14.7998 11.012 14.7154 11.2152 14.5654 11.3652C14.4154 11.5153 14.2122 11.5996 14 11.5996C13.7879 11.5996 13.5846 11.5152 13.4346 11.3652C13.2846 11.2152 13.2002 11.0119 13.2002 10.7998C13.2002 10.5877 13.2846 10.3844 13.4346 10.2344C13.5846 10.0844 13.7879 10 14 10ZM5.2002 5.2002C4.77585 5.2002 4.36842 5.36889 4.06836 5.66895C3.76853 5.96892 3.59967 6.37567 3.59961 6.7998V7.59961H16.4004V6.7998C16.4003 6.37567 16.2315 5.96892 15.9316 5.66895C15.6316 5.36889 15.2242 5.2002 14.7998 5.2002H14V6C14 6.21211 13.9156 6.41541 13.7656 6.56543C13.6157 6.71539 13.4123 6.79973 13.2002 6.7998C12.988 6.7998 12.7838 6.71546 12.6338 6.56543C12.484 6.41543 12.4004 6.21201 12.4004 6V5.2002H7.59961V6C7.59961 6.21217 7.51526 6.4154 7.36523 6.56543C7.21521 6.71543 7.01195 6.7998 6.7998 6.7998C6.58767 6.79978 6.38438 6.71543 6.23438 6.56543C6.08438 6.41541 6 6.21215 6 6V5.2002H5.2002Z" fill="#262626"/>
</svg>
