<svg width="247" height="90" viewBox="0 0 247 90" fill="none" xmlns="http://www.w3.org/2000/svg">
<path d="M129.872 19.5215C133.176 19.5215 135.784 19.9219 138.188 20.5244H153.196V26.6328C151.493 27.1316 149.492 27.635 147.788 28.1338C148.889 30.2374 149.492 32.9384 149.492 35.7432V40.3506C149.492 50.2567 143.492 56.2568 129.872 56.2568C128.87 56.2568 127.971 56.257 127.067 56.1582C125.467 57.1607 124.164 58.5583 124.164 60.0645C124.164 61.3681 124.969 61.9655 126.87 62.168C132.282 62.7655 135.285 63.0665 140.993 63.6689C148.899 64.5726 151.398 68.4791 151.398 75.4912C151.398 85.9009 147.596 89.9999 129.374 90C123.764 90 116.06 89.1997 110.559 87.501L112.06 78.4004C117.26 79.7041 122.766 80.5039 128.475 80.5039C138.188 80.5039 140.095 79.8026 140.095 76.5977C140.095 73.5903 139.196 73.0914 135.487 72.6914C129.877 72.0939 127.571 71.793 121.358 71.0918C114.46 70.2918 111.759 67.9903 111.759 61.7783C111.759 57.7685 114.46 55.1656 116.86 53.4668C112.357 50.7657 110.258 46.2673 110.258 40.3564V35.7432C110.457 25.788 115.595 19.7233 129.222 19.5361L129.872 19.5215ZM64.2373 19.8281C67.9608 19.8281 74.8011 20.3313 79.1221 21.4375L77.8125 32.7021C73.4866 31.8923 68.1581 31.29 64.3311 31.29C60.0993 31.2901 59.0918 32.3961 59.0918 34.6084C59.0918 37.4414 59.4436 37.9747 64.3047 39.1084L65.3438 39.3438C79.324 42.4647 80.3311 45.1908 80.3311 55.25C80.331 65.3091 76.1043 70.8398 62.1191 70.8398C56.7809 70.8398 49.1412 69.5317 44.3115 67.9219L46.6279 57.166C50.6477 58.3709 55.9761 59.3779 61.4131 59.3779C65.7487 59.3779 66.4551 58.1684 66.4551 55.25C66.4551 52.129 66.351 51.7285 58.4893 49.8125C46.6279 46.8941 45.5215 43.6698 45.5215 34.5098C45.5215 24.1494 49.5461 19.8282 64.2373 19.8281ZM36.0195 69.832H30.6963L30.3955 65.2148C25.4623 68.9283 19.3188 70.8349 13.8818 70.835C4.31653 70.835 0.000144351 66.1186 0 57.2646V34.9141C0 25.9561 4.01528 19.8271 15.0869 19.8271C20.2225 19.8272 24.5531 20.3265 30.1924 21.4326L30.1973 21.4375V0.810547L36.0195 0V69.832ZM101.412 69.832H89.1016V20.835H101.412V69.832ZM236.386 19.7686C244.03 19.7686 246.741 24.0845 246.741 30.8252V69.7773H240.919V30.124C240.919 26.4994 239.003 25.1904 235.581 25.1904C231.551 25.1904 222.894 27.6054 216.751 30.835V69.7725H210.924V20.7754H216.045L216.445 25.1904C221.516 22.7554 229.897 19.9493 235.816 19.7764L236.386 19.7686ZM190.815 19.7334C199.156 19.7334 202.074 25.971 202.074 35.4277V69.7383H187.596V37.3438C187.596 35.1314 186.692 33.8223 184.069 33.8223C181.447 33.8224 176.613 35.6352 173.492 37.3438V69.7383H159.013V20.7412H169.773L171.279 24.4648C177.324 21.5463 185.181 19.7334 190.815 19.7334ZM14.8838 25.0469C8.43948 25.0469 5.82227 28.2673 5.82227 34.9141V57.2646C5.82236 62.9037 7.63472 65.62 14.2812 65.6201C20.3256 65.6201 25.5603 63.1013 30.1924 59.3682H30.1875V26.7607C24.8542 25.6497 19.6146 25.0469 14.8838 25.0469ZM127.043 29.0625V33.3438L122.969 32.0205L121.048 37.9414L125.122 39.2646L122.604 42.7266L127.636 46.3857L130.154 42.9238L132.673 46.3857L137.704 42.7266H137.709L135.19 39.2646L139.265 37.9414L137.339 32.0205L133.265 33.3438V29.0625H127.043Z" fill="#070504"/>
</svg>
