<svg width="19" height="14" viewBox="0 0 19 14" fill="none" xmlns="http://www.w3.org/2000/svg">
<path d="M12.8981 12.4922C13.9276 12.0965 14.9018 11.6709 15.6714 10.7496C11.5219 13.1817 7.4425 13.1367 3.36312 10.7356C3.84822 11.3711 4.27898 11.6449 6.13441 12.5032C5.77972 12.9719 5.43294 13.4405 5.07233 13.8961C5.02095 13.9611 4.8935 14.0101 4.81051 13.9981C3.13983 13.7562 1.66873 13.0748 0.40806 11.9367C0.161064 11.7138 0.00101106 11.475 2.30773e-05 11.0943C-0.00491684 8.01172 0.783494 5.12996 2.10245 2.3771C2.12517 2.33014 2.15383 2.28617 2.16865 2.23721C2.41959 1.41785 3.01831 1.00817 3.78894 0.74837C4.70875 0.438611 5.6335 0.171819 6.59185 0.0149406C6.76672 -0.0140369 6.84181 0.0249328 6.91393 0.164824C6.96827 0.270742 7.0394 0.368665 7.12338 0.50456C6.10082 0.80033 5.12271 1.14806 4.28787 1.82253C7.78039 0.34968 11.2591 0.273739 14.7763 1.84951C13.8753 1.18603 12.908 0.769353 11.8469 0.49057C11.9507 0.327697 12.0238 0.191803 12.1186 0.0748938C12.1562 0.0279303 12.249 -0.00904089 12.3083 0.00195056C13.4633 0.210788 14.5994 0.483576 15.6862 0.948214C16.116 1.13207 16.4134 1.40586 16.6268 1.83053C17.5683 3.70707 18.3301 5.64656 18.7055 7.72494C18.9179 8.89903 19.0157 10.0861 18.9979 11.2782C18.995 11.496 18.8092 11.7648 18.6304 11.9187C17.4676 12.9209 16.1674 13.6613 14.6419 13.9381C14.5076 13.9621 14.3722 14.0071 14.2398 13.9991C14.1361 13.9931 14.0007 13.9481 13.9395 13.8712C13.5887 13.4275 13.2558 12.9689 12.8991 12.4922H12.8981ZM12.4595 6.04225C12.4516 6.02127 12.4437 5.99928 12.4358 5.9783C12.17 6.07822 11.8785 6.13718 11.6424 6.28506C10.7157 6.86761 10.5606 8.46537 11.3332 9.27174C12.0228 9.99218 13.0108 9.94022 13.6154 9.15283C14.1302 8.48335 14.1825 7.49612 13.735 6.77268C13.4425 6.30005 13.0177 6.04825 12.4605 6.04225H12.4595ZM4.88362 8.0347C4.91721 8.17959 4.95278 8.46337 5.05059 8.72416C5.28376 9.34768 5.73823 9.73638 6.40215 9.78234C6.95147 9.82031 7.38618 9.53753 7.70431 9.09688C8.20621 8.40242 8.20325 7.41718 7.71617 6.69674C7.20835 5.94633 6.16405 5.80743 5.5021 6.41396C5.07134 6.80766 4.90931 7.32325 4.88461 8.0357L4.88362 8.0347Z" fill="#262626"/>
</svg>
