<svg width="18" height="18" viewBox="0 0 18 18" fill="none" xmlns="http://www.w3.org/2000/svg">
<path d="M3.56152 5.69531C3.71887 5.69531 3.8457 5.82746 3.8457 5.99121V17.7041C3.84569 17.8678 3.71886 18 3.56152 18H0.702148C0.544941 17.9998 0.417983 17.8677 0.417969 17.7041V5.99121C0.417969 5.82755 0.544933 5.69547 0.702148 5.69531H3.56152ZM13.0986 5.51172C14.0358 5.51172 14.8758 5.70533 15.6152 6.09473C16.3547 6.48306 16.9373 7.07885 17.3633 7.87891C17.7881 8.67893 18 9.70478 18 10.9551V17.7041C18 17.8678 17.8732 18 17.7158 18H14.8564C14.6993 17.9998 14.5723 17.8677 14.5723 17.7041V11.5049C14.5723 10.5142 14.3632 9.78212 13.9463 9.30957C13.5283 8.83709 12.9396 8.60065 12.1777 8.60059C11.6361 8.60059 11.1483 8.7189 10.7168 8.95508C10.2841 9.19135 9.94784 9.55424 9.70508 10.042C9.46353 10.5297 9.3418 11.1557 9.3418 11.917V17.7041C9.34179 17.8678 9.21492 18 9.05762 18H6.19824C6.04098 17.9999 5.91407 17.8678 5.91406 17.7041V5.99121C5.91406 5.82751 6.04097 5.6954 6.19824 5.69531H8.90332C9.06066 5.69531 9.1875 5.82746 9.1875 5.99121V7.1582C9.52675 6.76473 9.93012 6.43725 10.3965 6.17578C11.1875 5.73383 12.0886 5.51275 13.0986 5.5127V5.51172ZM2.13184 0C2.76233 0 3.27529 0.178998 3.6709 0.538086C4.06638 0.89598 4.26367 1.35819 4.26367 1.92188C4.26365 2.51601 4.06934 3.00818 3.68164 3.39648C3.29278 3.78481 2.77694 3.98047 2.13184 3.98047V3.97949C1.50151 3.97946 0.989298 3.7884 0.59375 3.40723C0.198145 3.02592 0 2.55304 0 1.98926C8.08361e-05 1.42563 0.198225 0.953499 0.59375 0.572266C0.989318 0.191005 1.50143 3.28572e-05 2.13184 0Z" fill="#262626"/>
</svg>
