<svg width="15" height="17" viewBox="0 0 15 17" fill="none" xmlns="http://www.w3.org/2000/svg">
<path d="M6.09154 6.04402V9.17352C5.98282 9.17774 5.87911 9.19123 5.77708 9.18364C5.43168 9.15666 5.09046 9.20303 4.76346 9.2924C4.36119 9.402 4.0091 9.62963 3.72727 9.94157C3.29405 10.4221 3.06072 10.9912 3.11843 11.6454C3.17028 12.2356 3.39441 12.7541 3.8502 13.1571C4.11364 13.3898 4.41305 13.5482 4.73921 13.6612C4.8103 13.6857 4.88724 13.6907 4.96167 13.7067C5.05618 13.727 5.14984 13.7531 5.24518 13.7708C5.31209 13.7826 5.38318 13.8003 5.44757 13.7877C5.76788 13.7245 6.0815 13.6376 6.36669 13.4698C7.12439 13.0239 7.50408 12.3418 7.50742 11.4743C7.51913 7.81617 7.51328 4.15721 7.51411 0.499102C7.51411 0.33976 7.51411 0.180419 7.51411 0H10.4362C10.4897 0.178732 10.5525 0.366739 10.6026 0.557274C10.7816 1.23174 11.1362 1.80924 11.5644 2.34628C11.674 2.48371 11.776 2.62871 11.8973 2.75518C12.3706 3.24585 12.9293 3.61849 13.5523 3.88237C13.9605 4.05436 14.3979 4.13276 14.8369 4.19347C14.8879 4.20021 14.9389 4.21033 15 4.2196V7.14677C14.6772 7.16363 14.3652 7.17121 14.06 7.11051C13.0087 6.89974 12.0035 6.55492 11.0626 6.02969C11.0158 6.00355 10.9673 5.98163 10.9179 5.96224C10.8979 5.95465 10.8736 5.95887 10.8234 5.95634C10.8176 6.02884 10.8067 6.10051 10.8059 6.17217C10.8034 7.99406 10.8025 9.8151 10.8025 11.637C10.8025 12.0231 10.7289 12.3958 10.6486 12.7709C10.5742 13.1174 10.4914 13.458 10.3526 13.7826C10.0147 14.5734 9.50372 15.2369 8.8539 15.7891C8.6398 15.9713 8.39643 16.1222 8.15139 16.2613C7.60527 16.5715 7.02989 16.8211 6.40599 16.9155C5.83479 17.0015 5.26442 17.0344 4.679 16.9543C3.95391 16.8556 3.29405 16.6036 2.65929 16.2646C2.07219 15.951 1.58211 15.5118 1.17566 14.9849C0.718192 14.3913 0.390355 13.7329 0.194657 13.0011C0.0357564 12.4084 -0.0219494 11.8115 0.00732178 11.2028C0.0549919 10.2181 0.32345 9.3042 0.853676 8.46955C1.38557 7.63154 2.09394 6.99248 2.98294 6.57263C3.46382 6.34584 3.97314 6.17638 4.50253 6.09376C5.02272 6.01283 5.54626 6.04655 6.09237 6.04149L6.09154 6.04402Z" fill="#262626"/>
</svg>
