<svg width="20" height="20" viewBox="0 0 20 20" fill="none" xmlns="http://www.w3.org/2000/svg">
<path d="M10 1.5C14.6946 1.5 18.5 5.30545 18.5 10C18.5 14.6946 14.6946 18.5 10 18.5C5.30545 18.5 1.5 14.6946 1.5 10C1.5 5.30545 5.30545 1.5 10 1.5ZM10 3.2C8.19653 3.2 6.46692 3.91643 5.19167 5.19167C3.91643 6.46692 3.2 8.19653 3.2 10C3.2 11.8035 3.91643 13.5331 5.19167 14.8083C6.46692 16.0836 8.19653 16.8 10 16.8C11.8035 16.8 13.5331 16.0836 14.8083 14.8083C16.0836 13.5331 16.8 11.8035 16.8 10C16.8 8.19653 16.0836 6.46692 14.8083 5.19167C13.5331 3.91643 11.8035 3.2 10 3.2ZM10 4.9C10.2082 4.90003 10.4091 4.97646 10.5647 5.11481C10.7203 5.25315 10.8197 5.44379 10.8441 5.65055L10.85 5.75V9.6481L13.151 11.9491C13.3034 12.102 13.3919 12.3073 13.3985 12.5231C13.4051 12.739 13.3293 12.9493 13.1864 13.1112C13.0436 13.2732 12.8445 13.3748 12.6295 13.3952C12.4145 13.4157 12.1998 13.3536 12.029 13.2215L11.9491 13.151L9.39905 10.601C9.26694 10.4687 9.1821 10.2967 9.15765 10.1114L9.15 10V5.75C9.15 5.52457 9.23955 5.30837 9.39896 5.14896C9.55837 4.98955 9.77457 4.9 10 4.9Z" fill="#262626"/>
</svg>
