<svg width="20" height="18" viewBox="0 0 20 18" fill="none" xmlns="http://www.w3.org/2000/svg">
<path d="M10 9C9.0375 9 8.25 8.19 8.25 7.2C8.25 6.21 9.0375 5.4 10 5.4C10.9625 5.4 11.75 6.21 11.75 7.2C11.75 8.19 10.9625 9 10 9ZM15.25 7.38C15.25 4.113 12.9312 1.8 10 1.8C7.06875 1.8 4.75 4.113 4.75 7.38C4.75 9.486 6.45625 12.276 10 15.606C13.5437 12.276 15.25 9.486 15.25 7.38ZM10 0C13.675 0 17 2.898 17 7.38C17 10.368 14.6637 13.905 10 18C5.33625 13.905 3 10.368 3 7.38C3 2.898 6.325 0 10 0Z" fill="#262626"/>
</svg>
