<svg width="23" height="23" viewBox="0 0 23 23" fill="none" xmlns="http://www.w3.org/2000/svg">
<path d="M11.2517 7.50647C9.17815 7.50647 7.50647 9.19422 7.50647 11.2517C7.50647 13.3091 9.19422 14.9969 11.2517 14.9969C13.3091 14.9969 14.9969 13.3091 14.9969 11.2517C14.9969 9.19422 13.3091 7.50647 11.2517 7.50647ZM22.5033 11.2517C22.5033 9.69251 22.5033 8.1655 22.423 6.60634C22.3426 4.80607 21.9247 3.19869 20.6066 1.89671C19.2886 0.578658 17.6973 0.160738 15.897 0.080369C14.3378 -7.78435e-08 12.8108 0 11.2517 0C9.69251 0 8.1655 -7.78435e-08 6.60634 0.080369C4.80607 0.160738 3.19869 0.578658 1.89671 1.89671C0.578657 3.21476 0.160738 4.80607 0.080369 6.60634C-7.78435e-08 8.1655 0 9.69251 0 11.2517C0 12.8108 -7.78435e-08 14.3378 0.080369 15.897C0.160738 17.6973 0.578657 19.3047 1.89671 20.6066C3.21476 21.9247 4.80607 22.3426 6.60634 22.423C8.1655 22.5033 9.69251 22.5033 11.2517 22.5033C12.8108 22.5033 14.3378 22.5033 15.897 22.423C17.6973 22.3426 19.3047 21.9247 20.6066 20.6066C21.9247 19.2886 22.3426 17.6973 22.423 15.897C22.5194 14.3539 22.5033 12.8108 22.5033 11.2517ZM11.2517 17.0222C8.05298 17.0222 5.48117 14.4504 5.48117 11.2517C5.48117 8.05298 8.05298 5.48117 11.2517 5.48117C14.4504 5.48117 17.0222 8.05298 17.0222 11.2517C17.0222 14.4504 14.4504 17.0222 11.2517 17.0222ZM17.2633 6.59026C16.5239 6.59026 15.9131 5.99553 15.9131 5.24006C15.9131 4.48459 16.5078 3.88986 17.2633 3.88986C18.0187 3.88986 18.6135 4.48459 18.6135 5.24006C18.6175 5.41613 18.5854 5.59116 18.519 5.75429C18.4527 5.91742 18.3535 6.06519 18.2277 6.18842C18.1045 6.31424 17.9567 6.4134 17.7936 6.47976C17.6304 6.54612 17.4554 6.57826 17.2794 6.57419L17.2633 6.59026Z" fill="#1A1A1A"/>
</svg>
