<svg width="19" height="22" viewBox="0 0 19 22" fill="none" xmlns="http://www.w3.org/2000/svg">
<path d="M14.5537 3.29915C13.7542 2.38606 13.3135 1.21366 13.3136 0H9.69856V14.5069C9.67126 15.2921 9.34001 16.0361 8.77469 16.5817C8.20938 17.1274 7.4542 17.4321 6.66849 17.4317C5.00722 17.4317 3.62672 16.0746 3.62672 14.3899C3.62672 12.3777 5.56878 10.8685 7.56932 11.4885V7.79161C3.53313 7.25345 0 10.3888 0 14.3899C0 18.2857 3.22895 21.0584 6.65679 21.0584C10.3303 21.0584 13.3136 18.0751 13.3136 14.3899V7.03116C14.7795 8.08391 16.5395 8.64874 18.3442 8.64564V5.03062C18.3442 5.03062 16.1448 5.13591 14.5537 3.29915Z" fill="#1A1A1A"/>
</svg>
