<svg width="29" height="20" viewBox="0 0 29 20" fill="none" xmlns="http://www.w3.org/2000/svg">
<path d="M11.3667 14.2084L18.7409 9.9459L11.3667 5.68337V14.2084ZM27.7917 3.08323C27.9764 3.75102 28.1043 4.64615 28.1895 5.78283C28.289 6.9195 28.3316 7.89988 28.3316 8.75239L28.4168 9.9459C28.4168 13.0575 28.1895 15.3451 27.7917 16.8086C27.4365 18.0873 26.6124 18.9114 25.3336 19.2666C24.6658 19.4513 23.4439 19.5792 21.5684 19.6645C19.7213 19.7639 18.0305 19.8065 16.4676 19.8065L14.2084 19.8918C8.25509 19.8918 4.5467 19.6645 3.08323 19.2666C1.80447 18.9114 0.980381 18.0873 0.625171 16.8086C0.440461 16.1408 0.312585 15.2456 0.227335 14.109C0.127876 12.9723 0.0852505 11.9919 0.0852505 11.1394L0 9.9459C0 6.83425 0.227335 4.5467 0.625171 3.08323C0.980381 1.80447 1.80447 0.980381 3.08323 0.625171C3.75102 0.440461 4.97295 0.312585 6.84846 0.227335C8.69555 0.127876 10.3864 0.0852505 11.9493 0.0852505L14.2084 0C20.1618 0 23.8701 0.227335 25.3336 0.625171C26.6124 0.980381 27.4365 1.80447 27.7917 3.08323Z" fill="#1A1A1A"/>
</svg>
