<svg width="28" height="21" viewBox="0 0 28 21" fill="none" xmlns="http://www.w3.org/2000/svg">
<path d="M23.2071 1.73712C21.47 0.927334 19.5892 0.339587 17.63 0C17.5956 0.00049071 17.5627 0.0145745 17.5386 0.0391834C17.3035 0.470198 17.0292 1.03182 16.8464 1.46284C14.7683 1.14957 12.6551 1.14957 10.5771 1.46284C10.3942 1.01876 10.1199 0.470198 9.87175 0.0391834C9.85869 0.0130613 9.81951 0 9.78033 0C7.82117 0.339587 5.95344 0.927334 4.20326 1.73712C4.1902 1.73712 4.17714 1.75018 4.16408 1.76324C0.611471 7.07909 -0.368107 12.2513 0.115152 17.3712C0.115152 17.3973 0.128213 17.4234 0.154335 17.4365C2.50532 19.1606 4.76488 20.2054 6.99832 20.8977C7.03751 20.9107 7.07669 20.8977 7.08975 20.8716C7.61219 20.1532 8.08239 19.3957 8.48728 18.5989C8.5134 18.5467 8.48728 18.4944 8.43504 18.4814C7.69056 18.194 6.98526 17.8545 6.29303 17.4626C6.24078 17.4365 6.24078 17.3581 6.27997 17.3189C6.42364 17.2145 6.56731 17.0969 6.71098 16.9924C6.7371 16.9663 6.77629 16.9663 6.80241 16.9794C11.2954 19.0299 16.1411 19.0299 20.5818 16.9794C20.6079 16.9663 20.6471 16.9663 20.6732 16.9924C20.8169 17.11 20.9606 17.2145 21.1043 17.332C21.1565 17.3712 21.1565 17.4496 21.0912 17.4757C20.412 17.8806 19.6937 18.2071 18.9492 18.4944C18.8969 18.5075 18.8839 18.5728 18.8969 18.612C19.3149 19.4087 19.7851 20.1663 20.2945 20.8846C20.3337 20.8977 20.3728 20.9107 20.412 20.8977C22.6585 20.2054 24.9181 19.1606 27.2691 17.4365C27.2952 17.4234 27.3082 17.3973 27.3082 17.3712C27.8829 11.4545 26.3548 6.32155 23.2593 1.76324C23.2463 1.75018 23.2332 1.73712 23.2071 1.73712ZM9.16646 14.2496C7.82117 14.2496 6.69792 13.0088 6.69792 11.4807C6.69792 9.95252 7.79505 8.71172 9.16646 8.71172C10.5509 8.71172 11.6481 9.96558 11.635 11.4807C11.635 13.0088 10.5379 14.2496 9.16646 14.2496ZM18.27 14.2496C16.9247 14.2496 15.8015 13.0088 15.8015 11.4807C15.8015 9.95252 16.8986 8.71172 18.27 8.71172C19.6545 8.71172 20.7516 9.96558 20.7385 11.4807C20.7385 13.0088 19.6545 14.2496 18.27 14.2496Z" fill="#1A1A1A"/>
</svg>
