<svg width="21" height="21" viewBox="0 0 21 21" fill="none" xmlns="http://www.w3.org/2000/svg">
<path d="M17.8602 0C18.4523 0 19.0201 0.235212 19.4388 0.653891C19.8575 1.07257 20.0927 1.64042 20.0927 2.23252V17.8602C20.0927 18.4523 19.8575 19.0201 19.4388 19.4388C19.0201 19.8575 18.4523 20.0927 17.8602 20.0927H2.23252C1.64042 20.0927 1.07257 19.8575 0.653891 19.4388C0.235212 19.0201 0 18.4523 0 17.8602V2.23252C0 1.64042 0.235212 1.07257 0.653891 0.653891C1.07257 0.235212 1.64042 0 2.23252 0H17.8602ZM17.3021 17.3021V11.3859C17.3021 10.4207 16.9187 9.49515 16.2362 8.8127C15.5538 8.13025 14.6282 7.74686 13.663 7.74686C12.7142 7.74686 11.6091 8.32732 11.0733 9.198V7.95895H7.95895V17.3021H11.0733V11.7989C11.0733 10.9394 11.7654 10.2361 12.6249 10.2361C13.0394 10.2361 13.4369 10.4008 13.73 10.6938C14.023 10.9869 14.1877 11.3844 14.1877 11.7989V17.3021H17.3021ZM4.3311 6.20642C4.82846 6.20642 5.30546 6.00884 5.65715 5.65715C6.00884 5.30546 6.20642 4.82846 6.20642 4.3311C6.20642 3.29297 5.36922 2.44461 4.3311 2.44461C3.83077 2.44461 3.35094 2.64337 2.99715 2.99715C2.64337 3.35094 2.44461 3.83077 2.44461 4.3311C2.44461 5.36922 3.29297 6.20642 4.3311 6.20642ZM5.8827 17.3021V7.95895H2.79066V17.3021H5.8827Z" fill="#1A1A1A"/>
</svg>
