<svg width="16" height="16" viewBox="0 0 16 16" fill="none" xmlns="http://www.w3.org/2000/svg">
<path d="M11.2002 0C11.4123 7.46445e-05 11.6157 0.0844124 11.7656 0.234375C11.9156 0.384354 11.9999 0.587722 12 0.799805V1.59961H12.7998C13.6484 1.59961 14.4624 1.93713 15.0625 2.53711C15.6626 3.13717 15.9999 3.9512 16 4.7998V12.7998C16 13.6485 15.6626 14.4624 15.0625 15.0625C14.4624 15.6626 13.6485 16 12.7998 16H3.2002C2.3515 16 1.53762 15.6626 0.9375 15.0625C0.337397 14.4624 0 13.6485 0 12.7998V4.7998C6.32293e-05 3.9512 0.33744 3.13717 0.9375 2.53711C1.5376 1.93713 2.3516 1.59961 3.2002 1.59961H4V0.799805C4.00005 0.587702 4.08439 0.384358 4.23438 0.234375C4.38437 0.0843986 4.58769 2.87369e-05 4.7998 0C5.01191 0 5.21522 0.0844409 5.36523 0.234375C5.51522 0.384358 5.59956 0.587702 5.59961 0.799805V1.59961H10.4004V0.799805C10.4004 0.58782 10.484 0.384334 10.6338 0.234375C10.7838 0.0843459 10.988 0 11.2002 0ZM1.59961 12.7998C1.59961 13.2241 1.76831 13.6316 2.06836 13.9316C2.36842 14.2317 2.77585 14.4004 3.2002 14.4004H12.7998C13.2242 14.4004 13.6316 14.2317 13.9316 13.9316C14.2317 13.6316 14.4004 13.2241 14.4004 12.7998V7.2002H1.59961V12.7998ZM4 11.2002C4.21215 11.2002 4.4154 11.2846 4.56543 11.4346C4.71546 11.5846 4.7998 11.7878 4.7998 12C4.7998 12.2122 4.71546 12.4154 4.56543 12.5654C4.4154 12.7154 4.21215 12.7998 4 12.7998C3.78786 12.7998 3.58458 12.7154 3.43457 12.5654C3.28457 12.4154 3.2002 12.2122 3.2002 12C3.2002 11.7878 3.28457 11.5846 3.43457 11.4346C3.58458 11.2846 3.78786 11.2002 4 11.2002ZM8 11.2002C8.21215 11.2002 8.4154 11.2846 8.56543 11.4346C8.71546 11.5846 8.7998 11.7878 8.7998 12C8.7998 12.2122 8.71546 12.4154 8.56543 12.5654C8.4154 12.7154 8.21215 12.7998 8 12.7998C7.78786 12.7998 7.58458 12.7154 7.43457 12.5654C7.28457 12.4154 7.2002 12.2122 7.2002 12C7.2002 11.7878 7.28457 11.5846 7.43457 11.4346C7.58458 11.2846 7.78786 11.2002 8 11.2002ZM12 11.2002C12.2122 11.2002 12.4154 11.2846 12.5654 11.4346C12.7155 11.5846 12.7998 11.7878 12.7998 12C12.7998 12.2122 12.7155 12.4154 12.5654 12.5654C12.4154 12.7154 12.2122 12.7998 12 12.7998C11.7879 12.7998 11.5846 12.7154 11.4346 12.5654C11.2846 12.4154 11.2002 12.2122 11.2002 12C11.2002 11.7878 11.2846 11.5846 11.4346 11.4346C11.5846 11.2846 11.7879 11.2002 12 11.2002ZM4 8C4.21211 8 4.41541 8.08443 4.56543 8.23438C4.71541 8.38436 4.79975 8.5877 4.7998 8.7998C4.7998 9.01195 4.71542 9.21521 4.56543 9.36523C4.4154 9.51526 4.21217 9.59961 4 9.59961C3.78786 9.59959 3.58458 9.51524 3.43457 9.36523C3.28463 9.21522 3.2002 9.01191 3.2002 8.7998C3.20025 8.5877 3.28459 8.38436 3.43457 8.23438C3.58457 8.0844 3.78788 8.00002 4 8ZM8 8C8.21211 8 8.41541 8.08443 8.56543 8.23438C8.71541 8.38436 8.79975 8.5877 8.7998 8.7998C8.7998 9.01195 8.71542 9.21521 8.56543 9.36523C8.4154 9.51526 8.21217 9.59961 8 9.59961C7.78786 9.59959 7.58458 9.51524 7.43457 9.36523C7.28463 9.21522 7.2002 9.01191 7.2002 8.7998C7.20025 8.5877 7.28459 8.38436 7.43457 8.23438C7.58457 8.0844 7.78788 8.00002 8 8ZM12 8C12.2121 8 12.4154 8.08443 12.5654 8.23438C12.7154 8.38436 12.7998 8.5877 12.7998 8.7998C12.7998 9.01195 12.7154 9.21521 12.5654 9.36523C12.4154 9.51526 12.2122 9.59961 12 9.59961C11.7879 9.59959 11.5846 9.51524 11.4346 9.36523C11.2846 9.21522 11.2002 9.01191 11.2002 8.7998C11.2002 8.5877 11.2846 8.38436 11.4346 8.23438C11.5846 8.0844 11.7879 8.00002 12 8ZM3.2002 3.2002C2.77585 3.2002 2.36842 3.36889 2.06836 3.66895C1.76853 3.96892 1.59967 4.37567 1.59961 4.7998V5.59961H14.4004V4.7998C14.4003 4.37567 14.2315 3.96892 13.9316 3.66895C13.6316 3.36889 13.2242 3.2002 12.7998 3.2002H12V4C12 4.21211 11.9156 4.41541 11.7656 4.56543C11.6157 4.71539 11.4123 4.79973 11.2002 4.7998C10.988 4.7998 10.7838 4.71546 10.6338 4.56543C10.484 4.41543 10.4004 4.21201 10.4004 4V3.2002H5.59961V4C5.59961 4.21217 5.51526 4.4154 5.36523 4.56543C5.21521 4.71542 5.01195 4.7998 4.7998 4.7998C4.58767 4.79978 4.38438 4.71543 4.23438 4.56543C4.08438 4.41541 4 4.21215 4 4V3.2002H3.2002Z" fill="white"/>
</svg>
