<svg width="14" height="18" viewBox="0 0 14 18" fill="none" xmlns="http://www.w3.org/2000/svg">
<path d="M7 9C6.0375 9 5.25 8.19 5.25 7.2C5.25 6.21 6.0375 5.4 7 5.4C7.9625 5.4 8.75 6.21 8.75 7.2C8.75 8.19 7.9625 9 7 9ZM12.25 7.38C12.25 4.113 9.93125 1.8 7 1.8C4.06875 1.8 1.75 4.113 1.75 7.38C1.75 9.486 3.45625 12.276 7 15.606C10.5438 12.276 12.25 9.486 12.25 7.38ZM7 0C10.675 0 14 2.898 14 7.38C14 10.368 11.6637 13.905 7 18C2.33625 13.905 0 10.368 0 7.38C0 2.898 3.325 0 7 0Z" fill="white"/>
</svg>
